P3
# comment: write your comment
3 3
255
255
255
255
255
0
0
255
0
0
0
0
0
0
0
0
0
0
0
0
0
0
0
0
0
0
0
0
